<svg width="64" height="64" viewBox="0 0 64 64" xmlns="http://www.w3.org/2000/svg">
  <circle cx="32" cy="32" r="30" fill="white" fill-opacity="0.9"/>
  <path d="M43.5 19.5c-2.1-1-4.4-1.7-6.7-2.1-.3.5-.6 1.2-.8 1.7-2.5-.4-5-.4-7.5 0-.2-.6-.5-1.2-.8-1.7-2.3.4-4.6 1.1-6.7 2.1-4.3 6.4-5.5 12.6-4.9 18.8 2.8 2.1 5.5 3.3 8.2 4.1.7-.9 1.3-1.9 1.8-2.9-.9-.4-1.8-.8-2.7-1.3.2-.2.4-.3.6-.5 5.2 2.4 11 2.4 16.2 0 .2.2.4.3.6.5-.9.5-1.8.9-2.7 1.3.5 1 1.1 2 1.8 2.9 2.7-.8 5.4-2 8.2-4.1.7-7.2-1.2-13.5-4.9-18.8zm-17 15c-1.6 0-3-1.5-3-3.3s1.3-3.3 3-3.3 3 1.5 3 3.3c0 1.8-1.3 3.3-3 3.3zm11 0c-1.6 0-3-1.5-3-3.3s1.3-3.3 3-3.3 3 1.5 3 3.3c0 1.8-1.3 3.3-3 3.3z" fill="#5865F2"/>
</svg>
