<svg width="64" height="64" viewBox="0 0 64 64" xmlns="http://www.w3.org/2000/svg">
  <circle cx="32" cy="32" r="30" fill="white" fill-opacity="0.9"/>
  <path d="M32 15c-4.5 0-8.2 3.6-8.2 8.1 0 3.2 1.8 5.8 2.8 7.3.3.5.6.9.6 1.2 0 .4-.3.6-.9.8-.3.1-.7.2-1 .4-.5.2-.7.5-.7.8 0 .6.8 1 1.6 1.2.2.1.5.1.7.2-.1.2-.1.5-.3.7-.4.6-1.2 1-2.2 1-.5 0-1-.1-1.5-.3-.2-.1-.4-.1-.6-.1-.5 0-.9.3-.9.8 0 .3.2.6.5.8 1.3.8 2.7 1.2 4.2 1.3.2 0 .4.1.4.3.1 1.1.9 2 2.1 2.5 1.1.5 2.4.7 3.4.7s2.3-.2 3.4-.7c1.2-.5 2-1.4 2.1-2.5 0-.2.2-.3.4-.3 1.5-.1 2.9-.5 4.2-1.3.3-.2.5-.5.5-.8 0-.5-.4-.8-.9-.8-.2 0-.4 0-.6.1-.5.2-1 .3-1.5.3-1 0-1.8-.4-2.2-1-.2-.2-.2-.5-.3-.7.2-.1.5-.1.7-.2.8-.2 1.6-.6 1.6-1.2 0-.3-.2-.6-.7-.8-.3-.2-.7-.3-1-.4-.6-.2-.9-.4-.9-.8 0-.3.3-.7.6-1.2 1-1.5 2.8-4.1 2.8-7.3 0-4.5-3.7-8.1-8.2-8.1z" fill="#FFFC00"/>
  <path d="M32 15c-4.5 0-8.2 3.6-8.2 8.1 0 3.2 1.8 5.8 2.8 7.3.3.5.6.9.6 1.2 0 .4-.3.6-.9.8-.3.1-.7.2-1 .4-.5.2-.7.5-.7.8 0 .6.8 1 1.6 1.2.2.1.5.1.7.2-.1.2-.1.5-.3.7-.4.6-1.2 1-2.2 1-.5 0-1-.1-1.5-.3-.2-.1-.4-.1-.6-.1-.5 0-.9.3-.9.8 0 .3.2.6.5.8 1.3.8 2.7 1.2 4.2 1.3.2 0 .4.1.4.3.1 1.1.9 2 2.1 2.5 1.1.5 2.4.7 3.4.7s2.3-.2 3.4-.7c1.2-.5 2-1.4 2.1-2.5 0-.2.2-.3.4-.3 1.5-.1 2.9-.5 4.2-1.3.3-.2.5-.5.5-.8 0-.5-.4-.8-.9-.8-.2 0-.4 0-.6.1-.5.2-1 .3-1.5.3-1 0-1.8-.4-2.2-1-.2-.2-.2-.5-.3-.7.2-.1.5-.1.7-.2.8-.2 1.6-.6 1.6-1.2 0-.3-.2-.6-.7-.8-.3-.2-.7-.3-1-.4-.6-.2-.9-.4-.9-.8 0-.3.3-.7.6-1.2 1-1.5 2.8-4.1 2.8-7.3 0-4.5-3.7-8.1-8.2-8.1z" fill="none" stroke="black" stroke-width="0.5"/>
</svg>
