<svg width="64" height="64" viewBox="0 0 64 64" xmlns="http://www.w3.org/2000/svg">
  <circle cx="32" cy="32" r="30" fill="white" fill-opacity="0.9"/>
  <circle cx="32" cy="32" r="16" fill="#29A9EB"/>
  <path d="M23.5 32.3l12.7-5.2c5.9-2.4 7.1-2.8 7.9-2.8.2 0 .5 0 .7.2.2.1.2.3.3.5 0 .1 0 .4 0 .6-.2 2.3-1.1 7.9-1.6 10.5-.2 1.1-.6 1.5-1 1.5-.8.1-1.5-.5-2.3-1l-3.3-2.2c-1.5-1-2.6-1.6-4.2-2.6-1.9-1.2-.7-1.9.4-3 .3-.3 5.5-5 5.6-5.4 0-.1 0-.3-.1-.4-.1-.1-.3-.1-.4 0-.2.1-3.3 2.1-9.3 6.2-.9.6-1.7.9-2.4.9-.8 0-2.3-.4-3.4-.8-1.4-.5-2.5-.7-2.4-1.5.1-.4.6-.8 1.5-1.2z" fill="white"/>
</svg>
