<svg width="64" height="64" viewBox="0 0 64 64" xmlns="http://www.w3.org/2000/svg">
  <circle cx="32" cy="32" r="30" fill="white" fill-opacity="0.9"/>
  <path d="M38.5 17h-5.5v19.5c0 2.5-2 4.5-4.5 4.5s-4.5-2-4.5-4.5 2-4.5 4.5-4.5c.5 0 .9.1 1.4.2V26.6c-.5-.1-.9-.1-1.4-.1-5 0-9 4-9 9s4 9 9 9 9-4 9-9V25.7c2 1.4 4.4 2.3 7 2.3v-5.5c-3.5 0-6.5-2.5-7-5.5z" fill="#000000"/>
  <path d="M38.5 17h-5.5v19.5c0 2.5-2 4.5-4.5 4.5s-4.5-2-4.5-4.5 2-4.5 4.5-4.5c.5 0 .9.1 1.4.2V26.6c-.5-.1-.9-.1-1.4-.1-5 0-9 4-9 9s4 9 9 9 9-4 9-9V25.7c2 1.4 4.4 2.3 7 2.3v-5.5c-3.5 0-6.5-2.5-7-5.5z" fill="#EE1D52" fill-opacity="0.8"/>
  <path d="M29.5 32c-.5 0-.9.1-1.4.2V26.6c-.5-.1-.9-.1-1.4-.1-5 0-9 4-9 9s4 9 9 9c2.1 0 4-.7 5.5-2V32z" fill="#69C9D0" fill-opacity="0.8"/>
</svg>
