<svg width="64" height="64" viewBox="0 0 64 64" xmlns="http://www.w3.org/2000/svg">
  <circle cx="32" cy="32" r="30" fill="white" fill-opacity="0.9"/>
  <path d="M32 15c-9.4 0-17 7.6-17 17 0 3 .8 5.9 2.2 8.4L15 48l7.8-2.1c2.4 1.3 5.1 2 7.9 2h.1c9.4 0 17-7.6 17-17S41.4 15 32 15zm10 24.2c-.4 1.2-2.1 2.2-3.4 2.5-.9.2-2.1.4-6.1-1.3-5.1-2.2-8.4-7.4-8.7-7.7-.3-.3-2.1-2.8-2.1-5.4s1.3-3.8 1.8-4.3c.4-.5 1-.6 1.3-.6.3 0 .6 0 .9.1.3 0 .7 0 1 .8.4.9 1.3 3.2 1.4 3.4.1.2.2.5.1.7-.1.3-.2.4-.4.6-.2.2-.4.5-.6.7-.2.2-.4.4-.2.8.2.4 1.1 1.8 2.4 2.9 1.7 1.5 3.1 2 3.5 2.2.4.2.6.2.8-.1.2-.3.9-1.1 1.2-1.5.3-.4.5-.3.9-.2.4.1 2.3 1.1 2.7 1.3.4.2.6.3.7.5.1.2.1 1.2-.3 2.4z" fill="#25D366"/>
</svg>
